# xmcd
# Track frame offsets:
# 150
# 16559
# 34900
# 51822
# 72249
# 91571
# 117341
# 136824
# 158250
# 172602
# 191088
# 208849
# 223737
# 246970
#
# Disc length: 3537 seconds
# Revision: 0
# Processed by: cddbd v1.4PL0 Copyright (c) Steve Scherf et al.
# Submitted via: VisiTrax 2.9.3.171 - For more info visit www.synapsa.com
#
DISCID=b10dcf0e
DTITLE=Judd, Wynonna - What the World Needs Now Is Love
DYEAR=2003
DGENRE=Country
TTITLE0=What the World Needs
TTITLE1=Heaven Help Me
TTITLE2=It All Comes Down to Love
TTITLE3=Flies on the Butter (You Can't Go Home Again)
TTITLE4=I Will Be
TTITLE5=I Want to Know What Love Is
TTITLE6=It's Only Love
TTITLE7=Sometimes I Feel Like Elvis
TTITLE8=Burning Love
TTITLE9=Who Am I Supposed to Love
TTITLE10=Your Day Will Come
TTITLE11=(No One's Gonna) Break Me Down
TTITLE12=You Are
TTITLE13=Rescue Me
EXTD=
EXTT0=
EXTT1=
EXTT2=
EXTT3=
EXTT4=
EXTT5=
EXTT6=
EXTT7=
EXTT8=
EXTT9=
EXTT10=
EXTT11=
EXTT12=
EXTT13=
PLAYORDER=
